<?xml version="1.0" encoding="UTF-8" standalone="no"?>
<!-- Created with Inkscape (http://www.inkscape.org/) -->

<svg
   width="300"
   height="120"
   viewBox="0 0 79.375 31.75"
   version="1.1"
   id="svg1"
   xml:space="preserve"
   inkscape:version="1.3 (0e150ed6c4, 2023-07-21)"
   sodipodi:docname="logo.svg"
   inkscape:export-filename="../../../../Downloads/iree_gd_logo.png"
   inkscape:export-xdpi="96"
   inkscape:export-ydpi="96"
   xmlns:inkscape="http://www.inkscape.org/namespaces/inkscape"
   xmlns:sodipodi="http://sodipodi.sourceforge.net/DTD/sodipodi-0.dtd"
   xmlns="http://www.w3.org/2000/svg"
   xmlns:svg="http://www.w3.org/2000/svg"
   xmlns:rdf="http://www.w3.org/1999/02/22-rdf-syntax-ns#"
   xmlns:cc="http://creativecommons.org/ns#"><sodipodi:namedview
     id="namedview1"
     pagecolor="#505050"
     bordercolor="#eeeeee"
     borderopacity="1"
     inkscape:showpageshadow="0"
     inkscape:pageopacity="0"
     inkscape:pagecheckerboard="0"
     inkscape:deskcolor="#505050"
     inkscape:document-units="px"
     inkscape:zoom="3.8633333"
     inkscape:cx="150"
     inkscape:cy="59.922347"
     inkscape:window-width="1920"
     inkscape:window-height="1011"
     inkscape:window-x="0"
     inkscape:window-y="0"
     inkscape:window-maximized="1"
     inkscape:current-layer="layer1" /><defs
     id="defs1" /><g
     inkscape:label="Layer 1"
     inkscape:groupmode="layer"
     id="layer1"><g
       id="g54"
       transform="matrix(1.1564016,0,0,1.1564016,1.6816126,0.60472743)"><g
         id="g38"><path
           id="path31"
           style="fill:#414042;fill-opacity:1;stroke-width:0.264583"
           d="m 14.673828,4.4257812 c -0.85736,0.2256136 -1.815842,0.4399177 -2.514589,0.958848 -0.39828,0.761043 -0.6009,2.0658184 -1.713927,1.9825583 C 9.9522955,7.3055855 9.3728328,7.080455 9.1112913,7.6656766 8.5364881,8.288661 8.0515537,8.9866255 7.6171875,9.7128906 c 1.541056,2.4406784 0.98823,5.4417474 0.9951742,8.1664014 -0.012716,1.381952 0.13559,2.779209 0.6122477,4.083599 3.1837036,0.202857 6.3753476,0.01096 9.5484076,-0.213855 1.851115,0.297457 3.768653,0.116423 5.519952,-0.559583 1.338171,-3.077241 0.0042,-6.4321 0.466797,-9.623047 0.09549,-0.653923 0.300065,-1.285267 0.55664,-1.8925779 C 24.797481,8.7790636 24.147552,7.9715892 23.443359,7.2167969 22.716827,7.4290198 21.679385,7.5235864 21.363834,6.6428041 21.005971,6.0746807 20.984663,5.1922862 20.208303,5.04306 19.512,4.7262684 18.767001,4.5384859 18.025391,4.3613281 17.391555,5.0344065 16.31132,5.5104072 15.505859,4.8203125 15.218133,4.6871822 15.025508,4.2216274 14.673828,4.4257812 Z" /><path
           id="path23"
           style="fill:#e3dbde;fill-opacity:1;fill-rule:nonzero;stroke:none;stroke-width:0.023702"
           d="m 14.800822,4.9384719 c -0.753951,0.1675279 -1.499345,0.4006297 -2.198316,0.7524088 -0.552539,1.1230084 -0.736218,2.6234479 -2.8938803,2.1016805 -1.362e-4,-6.85e-5 -3.805e-4,6.86e-5 -5.167e-4,0 -0.6443116,0.6934125 -1.114787,1.3191233 -1.477946,1.9373493 2.039268,3.4782795 0.1123081,7.9779185 1.386503,11.7197045 6.376746,-2.334986 9.02016,1.243813 14.268551,-0.684506 1.383818,-3.489124 -0.711533,-7.338962 0.841614,-11.0351985 -0.385317,-0.655945 -0.870565,-1.2836812 -1.477946,-1.9373493 -1.37e-4,6.86e-5 -3.81e-4,-6.85e-5 -5.17e-4,0 C 21.090706,8.3143286 20.907027,6.8138891 20.354488,5.6908807 19.65559,5.3391016 18.909752,5.1059998 18.156172,4.9384719 c -0.570815,0.504705 -1.12996,0.757242 -1.677417,0.7663615 -0.54762,-0.00897 -1.10694,-0.2614985 -1.677933,-0.7663615 z"
           sodipodi:nodetypes="cccccccccccccc" /><g
           id="g28"
           transform="translate(2.608481,-1.0431765)"><g
             id="g10"
             transform="matrix(0.07399661,0,0,-0.07399661,11.68731,13.575522)"
             style="fill:#414042;fill-opacity:1;stroke-width:0.320312"><path
               d="m 0,0 c 0,-12.052 -9.765,-21.815 -21.813,-21.815 -12.042,0 -21.81,9.763 -21.81,21.815 0,12.044 9.768,21.802 21.81,21.802 C -9.765,21.802 0,12.044 0,0"
               style="fill:#414042;fill-opacity:1;fill-rule:nonzero;stroke:none;stroke-width:0.320312"
               id="path10"
               inkscape:connector-curvature="0" /></g><g
             id="g11"
             transform="matrix(0.07399661,0,0,-0.07399661,11.29893,13.671262)"
             style="fill:#e3dbde;fill-opacity:1;stroke-width:0.320312"><path
               d="m 0,0 c 0,-7.994 -6.479,-14.473 -14.479,-14.473 -7.996,0 -14.479,6.479 -14.479,14.473 0,7.994 6.483,14.479 14.479,14.479 C -6.479,14.479 0,7.994 0,0"
               style="fill:#e3dbde;fill-opacity:1;fill-rule:nonzero;stroke:none;stroke-width:0.320312"
               id="path11"
               inkscape:connector-curvature="0" /></g><path
             d="m 16.052722,13.575522 c 0,0.891807 0.722577,1.614236 1.614236,1.614236 0.890993,0 1.613718,-0.722429 1.613718,-1.614236 0,-0.891215 -0.722725,-1.613274 -1.613718,-1.613274 -0.891659,0 -1.614236,0.722059 -1.614236,1.613274"
             style="fill:#414042;fill-opacity:1;fill-rule:nonzero;stroke:none;stroke-width:0.023702"
             id="path13"
             inkscape:connector-curvature="0" /><g
             id="g14"
             transform="matrix(0.07399661,0,0,-0.07399661,16.441201,13.671262)"
             style="fill:#e3dbde;fill-opacity:1;stroke-width:0.320312"><path
               d="m 0,0 c 0,-7.994 6.477,-14.473 14.471,-14.473 8.002,0 14.479,6.479 14.479,14.473 0,7.994 -6.477,14.479 -14.479,14.479 C 6.477,14.479 0,7.994 0,0"
               style="fill:#e3dbde;fill-opacity:1;fill-rule:nonzero;stroke:none;stroke-width:0.320312"
               id="path14"
               inkscape:connector-curvature="0" /></g></g></g><g
         id="g53"
         transform="translate(0,1.3146176)"
         style="stroke:#414042;stroke-width:0.396875;stroke-dasharray:none;stroke-opacity:1"><path
           style="-inkscape-font-specification:'Source Code Pro, Heavy';fill:#e3dbde;stroke:#414042;stroke-width:0.396875;stroke-linecap:round;stroke-linejoin:round;stroke-dasharray:none;stroke-opacity:1;paint-order:normal"
           d="m 54.359667,14.183429 h 1.389946 c 1.241778,0 2.166057,-0.691445 2.166057,-2.314224 0,-1.622779 -0.924279,-2.2718904 -2.236613,-2.2718904 h -1.31939 z"
           id="path52" /><path
           style="-inkscape-font-specification:'Source Code Pro, Heavy';fill:#e3dbde;stroke:#414042;stroke-width:0.396875;stroke-linecap:round;stroke-linejoin:round;stroke-dasharray:none;stroke-opacity:1;paint-order:normal"
           d="m 52.108942,14.268099 c 0.585612,0 1.150057,-0.282223 1.460501,-0.564445 v -2.187227 h -1.651001 v 0.987778 h 0.571501 v 0.635001 c -0.07056,0.05644 -0.197556,0.08467 -0.310445,0.08467 -0.656167,0 -0.973667,-0.479778 -0.973667,-1.340557 0,-0.832556 0.409222,-1.326445 0.910167,-1.326445 0.331611,0 0.515056,0.112889 0.705556,0.296333 l 0.663223,-0.747892 c -0.30339,-0.3104454 -0.74789,-0.5926674 -1.368779,-0.5926674 -1.19239,0 -2.159002,0.8607784 -2.159002,2.4130024 0,1.566334 0.973668,2.342446 2.151946,2.342446 z"
           id="path51" /><path
           style="-inkscape-font-specification:'Source Code Pro, Heavy';fill:#e3dbde;stroke:#414042;stroke-width:0.396875;stroke-linecap:round;stroke-linejoin:round;stroke-dasharray:none;stroke-opacity:1;paint-order:normal"
           d="m 47.691705,14.183429 c 0.550333,0 0.917223,-0.409223 0.917223,-0.917223 0,-0.500945 -0.36689,-0.917223 -0.917223,-0.917223 -0.550334,0 -0.917223,0.416278 -0.917223,0.917223 0,0.508 0.366889,0.917223 0.917223,0.917223 z"
           id="path50" /><path
           style="-inkscape-font-specification:'Source Code Pro, Heavy';fill:#e3dbde;stroke:#414042;stroke-width:0.396875;stroke-linecap:round;stroke-linejoin:round;stroke-dasharray:none;stroke-opacity:1;paint-order:normal"
           d="m 41.800762,14.183429 h 3.189114 v -1.016001 h -1.975557 v -0.818445 h 1.622779 v -1.016 H 43.014319 V 10.613315 H 44.91932 V 9.5973145 h -3.118558 z"
           id="path49" /><path
           style="-inkscape-font-specification:'Source Code Pro, Heavy';fill:#e3dbde;stroke:#414042;stroke-width:0.396875;stroke-linecap:round;stroke-linejoin:round;stroke-dasharray:none;stroke-opacity:1;paint-order:normal"
           d="m 37.567424,14.183429 h 3.189113 V 13.167428 H 38.78098 v -0.818445 h 1.622779 v -1.016 H 38.78098 v -0.719668 h 1.905002 V 9.5973145 h -3.118558 z"
           id="path48" /><path
           style="-inkscape-font-specification:'Source Code Pro, Heavy';fill:#e3dbde;stroke:#414042;stroke-width:0.396875;stroke-linecap:round;stroke-linejoin:round;stroke-dasharray:none;stroke-opacity:1;paint-order:normal"
           d="m 33.150641,14.183429 h 1.213556 v -1.538112 h 0.437445 l 0.790223,1.538112 h 1.354667 l -0.994834,-1.778001 c 0.4445,-0.239889 0.740834,-0.670279 0.740834,-1.326446 0,-1.1430005 -0.846667,-1.4816675 -1.834446,-1.4816675 h -1.707445 z"
           id="path46" /><path
           style="-inkscape-font-specification:'Source Code Pro, Heavy';fill:#e3dbde;stroke:#414042;stroke-width:0.396875;stroke-linecap:round;stroke-linejoin:round;stroke-dasharray:none;stroke-opacity:1;paint-order:normal"
           d="m 28.973746,14.183429 h 3.302003 v -1.016001 h -1.044223 v -2.554113 h 1.044223 V 9.5973145 h -3.302003 v 1.0160005 h 1.044223 v 2.554113 h -1.044223 z"
           id="path38" /></g></g></g><metadata
     id="metadata1"><rdf:RDF><cc:Work
         rdf:about=""><cc:license
           rdf:resource="http://creativecommons.org/licenses/by/4.0/" /></cc:Work><cc:License
         rdf:about="http://creativecommons.org/licenses/by/4.0/"><cc:permits
           rdf:resource="http://creativecommons.org/ns#Reproduction" /><cc:permits
           rdf:resource="http://creativecommons.org/ns#Distribution" /><cc:requires
           rdf:resource="http://creativecommons.org/ns#Notice" /><cc:requires
           rdf:resource="http://creativecommons.org/ns#Attribution" /><cc:permits
           rdf:resource="http://creativecommons.org/ns#DerivativeWorks" /></cc:License></rdf:RDF></metadata></svg>
