<?xml version="1.0" encoding="UTF-8" standalone="no"?>
<!DOCTYPE svg PUBLIC "-//W3C//DTD SVG 1.1//EN" "http://www.w3.org/Graphics/SVG/1.1/DTD/svg11.dtd">
<svg width="100%" height="100%" viewBox="0 0 80 80" version="1.1" xmlns="http://www.w3.org/2000/svg" xmlns:xlink="http://www.w3.org/1999/xlink" xml:space="preserve" xmlns:serif="http://www.serif.com/" style="fill-rule:evenodd;clip-rule:evenodd;stroke-linejoin:round;stroke-miterlimit:2;">
    <g id="g54" transform="matrix(1.1564,0,0,1.1564,-31.9706,-17.7144)">
        <g id="Layer-1" serif:id="Layer 1">
            <g id="g541" serif:id="g54">
                <g id="g38">
                    <path id="path31" d="M55.46,16.727C52.22,17.58 48.597,18.39 45.956,20.351C44.451,23.228 43.685,28.159 39.478,27.844C37.615,27.612 35.425,26.761 34.436,28.973C32.264,31.327 30.431,33.965 28.789,36.71C34.614,45.935 32.524,57.277 32.551,67.575C32.503,72.798 33.063,78.079 34.865,83.009C46.898,83.776 58.96,83.051 70.953,82.201C77.949,83.325 85.197,82.641 91.816,80.086C96.874,68.456 91.832,55.776 93.58,43.716C93.941,41.244 94.714,38.858 95.684,36.562C93.723,33.181 91.266,30.129 88.605,27.276C85.859,28.078 81.938,28.436 80.745,25.107C79.393,22.959 79.312,19.624 76.378,19.06C73.746,17.863 70.93,17.153 68.127,16.484C65.732,19.028 61.649,20.827 58.605,18.219C57.517,17.715 56.789,15.956 55.46,16.727Z" style="fill:rgb(65,64,66);fill-rule:nonzero;"/>
                    <path id="path23" d="M55.94,18.665C53.091,19.298 50.273,20.179 47.632,21.509C45.543,25.753 44.849,31.424 36.694,29.452C36.694,29.452 36.693,29.452 36.692,29.452C34.257,32.073 32.479,34.438 31.106,36.774C38.814,49.921 31.531,66.927 36.346,81.069C60.448,72.244 70.438,85.77 90.275,78.482C95.505,65.295 87.586,50.744 93.456,36.774C91.999,34.295 90.165,31.923 87.87,29.452C87.869,29.452 87.868,29.452 87.868,29.452C79.713,31.424 79.019,25.753 76.93,21.509C74.289,20.179 71.47,19.298 68.622,18.665C66.464,20.573 64.351,21.527 62.282,21.562C60.212,21.528 58.098,20.573 55.94,18.665Z" style="fill:rgb(227,219,222);fill-rule:nonzero;"/>
                    <g id="g28" transform="matrix(1,0,0,1,9.85883,-3.94271)">
                        <g id="g10" transform="matrix(0.0739966,0,0,-0.0739966,44.1725,51.3091)">
                            <path id="path10" d="M0,0C0,-45.551 -36.907,-82.45 -82.443,-82.45C-127.956,-82.45 -164.874,-45.551 -164.874,0C-164.874,45.521 -127.956,82.401 -82.443,82.401C-36.907,82.401 0,45.521 0,0" style="fill:rgb(65,64,66);fill-rule:nonzero;"/>
                        </g>
                        <g id="g11" transform="matrix(0.0739966,0,0,-0.0739966,42.7046,51.6709)">
                            <path id="path11" d="M0,0C0,-30.214 -24.488,-54.701 -54.724,-54.701C-84.945,-54.701 -109.448,-30.214 -109.448,0C-109.448,30.214 -84.945,54.724 -54.724,54.724C-24.488,54.724 0,30.214 0,0" style="fill:rgb(227,219,222);fill-rule:nonzero;"/>
                        </g>
                        <path id="path13" d="M60.672,51.309C60.672,54.68 63.403,57.41 66.773,57.41C70.14,57.41 72.872,54.68 72.872,51.309C72.872,47.941 70.14,45.212 66.773,45.212C63.403,45.212 60.672,47.941 60.672,51.309" style="fill:rgb(65,64,66);fill-rule:nonzero;"/>
                        <g id="g14" transform="matrix(0.0739966,0,0,-0.0739966,62.14,51.6709)">
                            <path id="path14" d="M0,0C0,-30.214 24.48,-54.701 54.694,-54.701C84.937,-54.701 109.417,-30.214 109.417,0C109.417,30.214 84.937,54.724 54.694,54.724C24.48,54.724 0,30.214 0,0" style="fill:rgb(227,219,222);fill-rule:nonzero;"/>
                        </g>
                    </g>
                </g>
            </g>
        </g>
    </g>
</svg>
